<svg width="772" height="903" viewBox="0 0 772 903" fill="none" xmlns="http://www.w3.org/2000/svg">
<rect x="5" y="576" width="319" height="319" rx="5" fill="#1B4332"/>
<path d="M6.47896 575.725L72.0943 491.918C73.042 490.707 74.4939 490 76.0312 490H388.006C392.214 490 394.54 494.882 391.889 498.15L328.61 576.161C327.681 577.307 326.294 577.984 324.819 578.011L10.508 583.806C6.29773 583.884 3.883 579.04 6.47896 575.725Z" fill="#081C15" stroke="#081C15"/>
<path d="M391.896 807.372L324.136 891.639C321.152 895.349 315.162 893.184 315.24 888.423L320.464 571.135C320.483 569.997 320.889 568.9 321.616 568.024L384.152 492.662C387.142 489.06 393 491.174 393 495.855V804.239C393 805.379 392.611 806.484 391.896 807.372Z" fill="#081C15" stroke="#081C15"/>
<path d="M320 579L391.5 491" stroke="#2D6A4F"/>
<path d="M212 490L147 582" stroke="#2D6A4F"/>
<path d="M379.5 505L305 561.5L355.414 490H388L379.5 505Z" fill="#04120D" stroke="#04120D"/>
<rect x="378" y="493" width="319" height="319" rx="5" fill="#40916C"/>
<path d="M379.479 492.725L445.094 408.918C446.042 407.707 447.494 407 449.031 407H761.006C765.214 407 767.54 411.882 764.889 415.15L701.61 493.161C700.681 494.307 699.294 494.984 697.819 495.011L383.508 500.806C379.298 500.884 376.883 496.04 379.479 492.725Z" fill="#2D6A4F" stroke="#2D6A4F"/>
<path d="M764.896 724.372L697.136 808.639C694.152 812.349 688.162 810.184 688.24 805.423L693.464 488.135C693.483 486.997 693.889 485.9 694.616 485.024L757.152 409.662C760.142 406.06 766 408.174 766 412.855V721.239C766 722.379 765.611 723.484 764.896 724.372Z" fill="#2D6A4F" stroke="#2D6A4F"/>
<path d="M693 496L764.5 408" stroke="#081C15"/>
<path d="M604 406L539 498" stroke="#081C15"/>
<rect x="95.7701" y="295.492" width="240.538" height="229.044" rx="5" fill="#40916C"/>
<path d="M96.748 297.655L148.435 234.731C148.815 234.268 149.382 234 149.981 234H387.672C389.377 234 390.3 235.997 389.195 237.296L339.226 296.013C338.854 296.45 338.312 296.706 337.738 296.716L98.3286 300.924C96.6233 300.954 95.6654 298.973 96.748 297.655Z" fill="#2D6A4F" stroke="#2D6A4F"/>
<path d="M389.508 461.674L333.606 525.86C332.38 527.268 330.065 526.377 330.098 524.511L334.212 293.803C334.221 293.322 334.402 292.86 334.724 292.502L386.513 234.88C387.738 233.517 390 234.384 390 236.217V460.36C390 460.843 389.825 461.31 389.508 461.674Z" fill="#2D6A4F" stroke="#2D6A4F"/>
<path d="M333 298L390 234" stroke="#081C15"/>
<path d="M388.846 235.698L356.998 268.396C356.216 269.199 354.907 268.305 355.371 267.284L370.234 234.586C370.396 234.229 370.752 234 371.144 234H385.5H388.13C389.015 234 389.464 235.064 388.846 235.698Z" fill="#04120D" stroke="#04120D"/>
<path d="M266.183 233.026L217.17 299.083" stroke="#081C15"/>
<path d="M245 242L208 267L228.5 234H240L245 242Z" fill="#04120D" stroke="#04120D"/>
<rect x="119.428" y="180.572" width="91.136" height="86.7809" rx="1" fill="#40916C"/>
<path d="M120.401 180.322L139.569 157.359C139.759 157.132 140.041 157 140.337 157H229.813C230.67 157 231.13 158.006 230.57 158.654L212.059 180.058C211.873 180.273 211.604 180.399 211.32 180.403L121.186 181.962C120.33 181.977 119.852 180.979 120.401 180.322Z" fill="#2D6A4F" stroke="#2D6A4F"/>
<path d="M230.041 243.421L209.806 267.383C209.199 268.102 208.025 267.661 208.042 266.72L209.556 179.135C209.56 178.899 209.647 178.673 209.802 178.495L228.523 157.013C229.131 156.316 230.277 156.745 230.277 157.67V242.775C230.277 243.012 230.194 243.24 230.041 243.421Z" fill="#2D6A4F" stroke="#2D6A4F"/>
<path d="M220 530.312L163 562L176.5 470H208.5L220 530.312Z" fill="#04120D" stroke="#04120D"/>
<path d="M566 435.662L508 482L538.107 407H565.115L566 435.662Z" fill="#04120D" stroke="#04120D"/>
<path d="M209.422 181.388L229.849 157.448" stroke="#081C15"/>
<path d="M183.995 156.904L165.425 181.932" stroke="#081C15"/>
<rect x="239" y="157" width="116" height="117" rx="1" fill="#1B4332"/>
<path d="M239.316 157.34L264.663 125.379C264.853 125.139 265.142 125 265.447 125H381.884C382.729 125 383.193 125.982 382.657 126.635L358.15 156.462C357.964 156.688 357.689 156.821 357.396 156.827L240.118 158.961C239.273 158.977 238.791 158.002 239.316 157.34Z" fill="#081C15" stroke="#081C15"/>
<path d="M381.774 240.794L354.822 273.77C354.222 274.505 353.032 274.069 353.048 273.121L355.036 154.318C355.04 154.088 355.123 153.866 355.272 153.69L380.236 124.092C380.837 123.379 382 123.804 382 124.737V240.161C382 240.392 381.92 240.615 381.774 240.794Z" fill="#081C15" stroke="#081C15"/>
<path d="M354.815 157.713L381.139 125.313" stroke="#2D6A4F"/>
<path d="M315.052 124.945L291.121 158.817" stroke="#2D6A4F"/>
<rect x="72.4283" y="477.572" width="91.136" height="86.7809" rx="2" fill="#40916C"/>
<path d="M73.7511 476.402L91.4257 454.906C91.8056 454.444 92.3724 454.176 92.9706 454.176H180.518C182.223 454.176 183.146 456.175 182.04 457.473L165.048 477.42C164.676 477.857 164.134 478.113 163.561 478.123L75.3311 479.672C73.6254 479.702 72.6677 477.72 73.7511 476.402Z" fill="#2D6A4F" stroke="#2D6A4F"/>
<path d="M182.805 540.7L164.618 562.237C163.404 563.674 161.058 562.793 161.09 560.912L162.55 476.5C162.558 476.029 162.732 475.575 163.042 475.22L179.769 456.025C180.984 454.631 183.277 455.49 183.277 457.339V539.41C183.277 539.882 183.11 540.339 182.805 540.7Z" fill="#2D6A4F" stroke="#2D6A4F"/>
<path d="M162.422 478.388L182.849 454.448" stroke="#081C15"/>
<path d="M136.995 453.904L118.425 478.932" stroke="#081C15"/>
<rect x="187.841" y="444.608" width="117.447" height="117.447" rx="1" fill="#1B4332"/>
<path d="M188.316 445.34L213.663 413.379C213.853 413.139 214.141 413 214.447 413H330.884C331.729 413 332.193 413.982 331.657 414.635L307.15 444.462C306.964 444.688 306.689 444.821 306.396 444.827L189.118 446.961C188.273 446.977 187.791 446.002 188.316 445.34Z" fill="#081C15" stroke="#081C15"/>
<path d="M331.762 530.028L303.81 562.873C303.202 563.588 302.032 563.146 302.049 562.208L304.106 444.122C304.11 443.885 304.198 443.657 304.355 443.479L330.249 413.994C330.857 413.301 332 413.732 332 414.654V529.38C332 529.618 331.915 529.848 331.762 530.028Z" fill="#081C15" stroke="#081C15"/>
<path d="M304 446L332 414" stroke="#2D6A4F"/>
<path d="M264.052 412.945L240.121 446.817" stroke="#2D6A4F"/>
<path d="M764.374 409.481L718.602 449.361C717.786 450.073 716.578 449.16 717.041 448.18L736.229 407.573C736.395 407.223 736.747 407 737.133 407H762.264C762.419 407 762.572 407.036 762.711 407.106L764.165 407.832C764.801 408.151 764.911 409.013 764.374 409.481Z" fill="#04120D" stroke="#04120D"/>
<rect x="358.385" y="332.836" width="152.158" height="152.158" rx="2" fill="#1B4332"/>
<path d="M358.919 333.619L389.937 297.693C390.317 297.253 390.87 297 391.451 297H538.528C540.256 297 541.171 299.045 540.018 300.333L510.099 333.781C509.727 334.197 509.199 334.438 508.642 334.448L360.467 336.925C358.739 336.954 357.79 334.926 358.919 333.619Z" fill="#081C15" stroke="#081C15"/>
<path d="M540.575 444.845L509.67 484.313C508.488 485.823 506.065 484.965 506.095 483.048L508.454 335.953C508.461 335.507 508.617 335.075 508.898 334.728L537.444 299.4C538.63 297.934 541 298.772 541 300.657V443.612C541 444.059 540.85 444.493 540.575 444.845Z" fill="#081C15" stroke="#081C15"/>
<path d="M508 335L540 298" stroke="#2D6A4F"/>
<path d="M457.121 291.816L426.117 335.698" stroke="#2D6A4F"/>
<rect x="564.385" y="302.836" width="152.158" height="152.158" rx="5" fill="#1B4332"/>
<path d="M564.592 303.342L596.503 262.583C596.883 262.099 597.463 261.816 598.078 261.816H747.881C749.564 261.816 750.494 263.769 749.434 265.076L718.629 303.053C718.257 303.511 717.702 303.781 717.113 303.792L566.203 306.575C564.519 306.606 563.553 304.669 564.592 303.342Z" fill="#081C15" stroke="#081C15"/>
<path d="M749.217 412.823L714.796 453.384C714.19 454.098 713.022 453.662 713.033 452.725L714.866 300.032C714.869 299.803 714.95 299.581 715.096 299.405L747.685 260.132C748.283 259.412 749.455 259.835 749.455 260.771V412.176C749.455 412.413 749.371 412.642 749.217 412.823Z" fill="#081C15" stroke="#081C15"/>
<path d="M714.635 304.268L748.739 262.293" stroke="#2D6A4F"/>
<path d="M663.121 261.816L632.117 305.698" stroke="#2D6A4F"/>
<rect x="607.295" y="168.692" width="127.911" height="127.911" rx="2" fill="#1B4332"/>
<path d="M606.586 170.244L634.5 134.591C634.689 134.349 634.98 134.208 635.287 134.208H762.98C763.821 134.208 764.286 135.184 763.756 135.838L736.76 169.119C736.574 169.348 736.297 169.484 736.002 169.489L607.392 171.861C606.55 171.876 606.067 170.907 606.586 170.244Z" fill="#081C15" stroke="#081C15"/>
<path d="M763.769 261.8L733.817 297.815C733.213 298.541 732.032 298.103 732.048 297.159L734.247 168.021C734.251 167.788 734.337 167.564 734.488 167.387L762.241 135.049C762.846 134.345 764 134.773 764 135.701V261.161C764 261.395 763.918 261.621 763.769 261.8Z" fill="#081C15" stroke="#081C15"/>
<path d="M763.5 134L711 158L730 134H742H763.5Z" fill="#04120D" stroke="#04120D"/>
<path d="M734 170L764 134" stroke="#2D6A4F"/>
<path d="M690.297 134.208L664.233 171.097" stroke="#2D6A4F"/>
<rect x="427.428" y="237.572" width="91.136" height="86.7809" rx="1" fill="#40916C"/>
<path d="M428.289 237.359L446.339 214.382C446.529 214.141 446.818 214 447.125 214H537.622C538.507 214 538.956 215.067 538.336 215.7L516.79 237.704C516.604 237.894 516.351 238.002 516.086 238.005L429.087 238.977C428.247 238.986 427.771 238.019 428.289 237.359Z" fill="#2D6A4F" stroke="#2D6A4F"/>
<path d="M538.072 301.2L517.805 323.972C517.187 324.666 516.039 324.215 516.059 323.285L517.87 239.073C517.875 238.849 517.955 238.634 518.097 238.46L537.206 215.186C537.804 214.457 538.986 214.885 538.978 215.828L538.325 300.543C538.323 300.786 538.233 301.019 538.072 301.2Z" fill="#2D6A4F" stroke="#2D6A4F"/>
<path d="M516 239L539 214" stroke="#081C15"/>
<path d="M492 214L474 238" stroke="#081C15"/>
<rect x="164.852" y="118.26" width="54.3865" height="51.7875" rx="1" fill="#40916C"/>
<path d="M165.376 117.886L176.247 104.664C176.437 104.433 176.721 104.299 177.02 104.299H229.775C230.628 104.299 231.089 105.298 230.536 105.947L220.068 118.236C219.882 118.455 219.611 118.583 219.324 118.588L166.166 119.521C165.313 119.536 164.834 118.545 165.376 117.886Z" fill="#2D6A4F" stroke="#2D6A4F"/>
<path d="M230.767 155.879L219.517 169.2C218.91 169.919 217.737 169.478 217.753 168.538L218.635 117.55C218.639 117.314 218.726 117.088 218.881 116.91L229.249 105.013C229.856 104.316 231.003 104.745 231.003 105.67V155.233C231.003 155.47 230.919 155.698 230.767 155.879Z" fill="#2D6A4F" stroke="#2D6A4F"/>
<path d="M218.557 118.747L230.747 104.461" stroke="#081C15"/>
<path d="M203.383 104.136L192.301 119.072" stroke="#081C15"/>
<rect x="274.428" y="67.5718" width="91.136" height="86.7809" rx="1" fill="#40916C"/>
<path d="M275.401 67.3215L294.569 44.3592C294.759 44.1316 295.041 44 295.337 44H384.813C385.67 44 386.13 45.0064 385.57 45.6541L367.059 67.0577C366.873 67.2728 366.604 67.3985 366.32 67.4035L276.186 68.9622C275.33 68.977 274.852 67.9789 275.401 67.3215Z" fill="#2D6A4F" stroke="#2D6A4F"/>
<path d="M385.764 130.244L365.812 153.855C365.205 154.574 364.032 154.133 364.049 153.193L365.543 66.8177C365.547 66.5821 365.634 66.3554 365.789 66.1778L384.246 45.0111C384.854 44.3146 386 44.7442 386 45.6684V129.598C386 129.835 385.916 130.063 385.764 130.244Z" fill="#2D6A4F" stroke="#2D6A4F"/>
<path d="M365 68L386 45" stroke="#081C15"/>
<path d="M338.995 43.9043L320.425 68.932" stroke="#081C15"/>
<rect x="628" y="72" width="85" height="86" rx="3" fill="#40916C"/>
<path d="M629.221 73.3628L647.092 49.4021C647.28 49.1491 647.578 49 647.893 49H730.964C731.794 49 732.263 49.9541 731.755 50.6114L714.492 72.9524C714.306 73.1921 714.023 73.335 713.72 73.3408L630.042 74.9605C629.21 74.9766 628.724 74.0295 629.221 73.3628Z" fill="#2D6A4F" stroke="#2D6A4F"/>
<path d="M731.759 133.706L712.322 156.375C711.711 157.088 710.542 156.641 710.563 155.701L712.471 71.3916C712.476 71.1626 712.56 70.9424 712.708 70.7677L730.237 50.0805C730.839 49.3701 732 49.7958 732 50.727V133.055C732 133.294 731.915 133.525 731.759 133.706Z" fill="#2D6A4F" stroke="#2D6A4F"/>
<path d="M712 74L732 49" stroke="#081C15"/>
<path d="M688.404 48.8608L671.126 73.3163" stroke="#081C15"/>
<path d="M385.416 45.9222L363.607 55.0679C362.599 55.4905 361.741 54.2214 362.509 53.4434L371.531 44.2977C371.719 44.1072 371.976 44 372.243 44H385.03C386.121 44 386.423 45.5 385.416 45.9222Z" fill="#04120D" stroke="#04120D"/>
<rect x="321.677" y="12.7378" width="43.2271" height="43.2271" rx="1" fill="#1B4332"/>
<path d="M322.296 12.1667L330.673 1.46752C330.862 1.22543 331.152 1.08398 331.46 1.08398H372.901C373.743 1.08398 374.208 2.06029 373.678 2.71394L365.624 12.6431C365.438 12.8721 365.161 13.0075 364.866 13.0129L323.102 13.783C322.26 13.7985 321.777 12.8298 322.296 12.1667Z" fill="#081C15" stroke="#081C15"/>
<path d="M374.034 44.1791L365.512 54.7767C364.915 55.5188 363.717 55.0857 363.733 54.1336L364.424 12.1919C364.427 11.9644 364.509 11.7449 364.654 11.5698L372.485 2.13246C373.083 1.41191 374.255 1.83472 374.255 2.77105V43.5525C374.255 43.7804 374.177 44.0015 374.034 44.1791Z" fill="#081C15" stroke="#081C15"/>
<path d="M364.363 13.1444L374.051 1.21973" stroke="#2D6A4F"/>
<path d="M349.728 1.08398L340.92 13.5507" stroke="#2D6A4F"/>
</svg>
